<?xml version="1.0" encoding="utf-8"?>
<!-- Generator: Adobe Illustrator 25.0.1, SVG Export Plug-In . SVG Version: 6.00 Build 0)  -->
<svg version="1.1" id="Layer_1" xmlns="http://www.w3.org/2000/svg" xmlns:xlink="http://www.w3.org/1999/xlink" x="0px" y="0px"
	 viewBox="0 0 116 128" style="enable-background:new 0 0 116 128;" xml:space="preserve">
<style type="text/css">
	.st0{fill:none;}
</style>
<g>
	<g>
		<g>
			<g>
				<path d="M31.86,52.16V37.68h2.11l8.09,10.76V37.68h2.05v14.48h-1.9l-8.27-11.09v11.09H31.86z"/>
				<path d="M49.65,52.37c-0.81,0-1.53-0.17-2.15-0.52c-0.62-0.34-1.1-0.83-1.45-1.46c-0.35-0.63-0.52-1.35-0.52-2.16v-6.6h2.05
					v6.25c0,0.83,0.24,1.48,0.71,1.96c0.48,0.48,1.11,0.72,1.91,0.72c0.57,0,1.07-0.12,1.51-0.36c0.44-0.24,0.8-0.58,1.08-1.02
					v-7.55h2.07v10.53h-2.07v-1.08C51.98,51.94,50.93,52.37,49.65,52.37z"/>
				<path d="M56.06,52.16V41.63h2.07v1.34c0.33-0.5,0.74-0.89,1.23-1.17c0.49-0.28,1.04-0.42,1.66-0.42
					c0.43,0.01,0.78,0.08,1.06,0.19v1.86c-0.19-0.08-0.39-0.14-0.6-0.18c-0.21-0.03-0.41-0.05-0.62-0.05
					c-0.61,0-1.14,0.16-1.61,0.49c-0.47,0.32-0.84,0.8-1.12,1.42v7.05H56.06z"/>
				<path d="M66.09,52.37c-0.91,0-1.76-0.13-2.55-0.4c-0.79-0.27-1.48-0.65-2.06-1.15l1.14-1.37c0.54,0.43,1.09,0.76,1.66,0.98
					c0.57,0.23,1.15,0.34,1.75,0.34c0.74,0,1.35-0.15,1.82-0.43c0.47-0.29,0.7-0.67,0.7-1.14c0-0.39-0.14-0.69-0.41-0.91
					c-0.28-0.22-0.7-0.37-1.28-0.46l-1.9-0.27c-1.05-0.15-1.83-0.48-2.36-0.97c-0.52-0.5-0.79-1.16-0.79-1.99
					c0-0.63,0.17-1.19,0.52-1.67c0.34-0.48,0.83-0.85,1.45-1.12s1.34-0.4,2.17-0.4c0.76,0,1.49,0.11,2.19,0.33
					c0.7,0.22,1.38,0.57,2.03,1.03l-1.06,1.37c-0.58-0.39-1.14-0.67-1.69-0.85c-0.55-0.18-1.09-0.27-1.64-0.27
					c-0.63,0-1.14,0.13-1.53,0.4c-0.39,0.27-0.58,0.62-0.58,1.04c0,0.39,0.13,0.69,0.4,0.9c0.27,0.21,0.71,0.36,1.33,0.44l1.9,0.27
					c1.05,0.15,1.84,0.47,2.38,0.96c0.54,0.49,0.81,1.15,0.81,1.98c0,0.63-0.19,1.2-0.58,1.71c-0.39,0.5-0.91,0.9-1.57,1.19
					C67.68,52.23,66.93,52.37,66.09,52.37z"/>
				<path d="M71.88,39.94c-0.35,0-0.64-0.13-0.89-0.38c-0.25-0.25-0.37-0.55-0.37-0.9c0-0.36,0.12-0.66,0.37-0.9
					c0.25-0.24,0.54-0.36,0.89-0.36c0.36,0,0.66,0.12,0.91,0.36c0.25,0.24,0.37,0.54,0.37,0.9c0,0.34-0.12,0.64-0.37,0.9
					C72.54,39.81,72.24,39.94,71.88,39.94z M70.85,52.16V41.63h2.07v10.53H70.85z"/>
				<path d="M74.12,52.16V41.63h2.07v1.08c0.81-0.86,1.87-1.28,3.16-1.28c0.81,0,1.53,0.17,2.14,0.52c0.61,0.34,1.1,0.83,1.45,1.45
					c0.35,0.62,0.53,1.34,0.53,2.15v6.62H81.4V45.9c0-0.83-0.23-1.48-0.69-1.95c-0.46-0.48-1.11-0.71-1.93-0.71
					c-0.55,0-1.05,0.12-1.49,0.35c-0.44,0.23-0.81,0.57-1.1,1.01v7.57H74.12z"/>
				<path d="M89.81,56.59c-0.77,0-1.52-0.09-2.25-0.27c-0.73-0.18-1.39-0.43-1.99-0.76l0.79-1.61c0.62,0.32,1.2,0.55,1.75,0.69
					c0.54,0.14,1.09,0.22,1.64,0.22c0.92,0,1.62-0.21,2.1-0.64c0.48-0.43,0.71-1.06,0.71-1.88v-1.2c-0.92,0.73-1.98,1.1-3.16,1.1
					c-0.97,0-1.85-0.24-2.66-0.71c-0.81-0.48-1.44-1.12-1.91-1.94c-0.47-0.82-0.7-1.73-0.7-2.72c0-1.01,0.24-1.92,0.71-2.74
					c0.48-0.82,1.12-1.47,1.92-1.94c0.81-0.48,1.71-0.71,2.72-0.71c0.57,0,1.11,0.09,1.64,0.28c0.53,0.19,1.02,0.45,1.46,0.8v-0.89
					h2.05v10.69c0,1.37-0.42,2.42-1.25,3.15C92.55,56.22,91.36,56.59,89.81,56.59z M89.67,50.45c0.61,0,1.16-0.11,1.65-0.32
					c0.5-0.21,0.91-0.52,1.24-0.92v-4.72c-0.33-0.39-0.75-0.69-1.25-0.91c-0.5-0.22-1.05-0.33-1.64-0.33
					c-0.66,0-1.26,0.16-1.79,0.48c-0.53,0.32-0.95,0.75-1.26,1.29c-0.31,0.55-0.47,1.16-0.47,1.83c0,0.68,0.16,1.29,0.47,1.83
					c0.31,0.54,0.73,0.98,1.26,1.29C88.41,50.29,89.01,50.45,89.67,50.45z"/>
				<path d="M103.13,52.39c-0.98,0-1.84-0.17-2.58-0.52c-0.74-0.34-1.31-0.83-1.73-1.45c-0.41-0.62-0.62-1.34-0.62-2.15
					c0-0.59,0.1-1.12,0.29-1.57c0.19-0.46,0.51-0.89,0.96-1.29c0.45-0.41,1.04-0.82,1.79-1.23c-0.46-0.59-0.78-1.14-0.97-1.63
					c-0.19-0.5-0.29-1.02-0.29-1.57c0-0.68,0.16-1.28,0.48-1.81c0.32-0.53,0.76-0.95,1.32-1.25c0.57-0.3,1.21-0.46,1.92-0.46
					c0.68,0,1.28,0.13,1.81,0.4c0.53,0.27,0.95,0.64,1.26,1.12c0.31,0.48,0.46,1.02,0.46,1.64c0,0.66-0.18,1.26-0.54,1.79
					c-0.36,0.53-0.92,1.02-1.68,1.46L104,44.51c0.5,0.55,1.04,1.12,1.63,1.7c0.59,0.58,1.19,1.15,1.8,1.72
					c0.32-0.51,0.58-1.07,0.79-1.69c0.21-0.61,0.38-1.27,0.52-1.95l1.84,0.31c-0.19,0.88-0.43,1.7-0.72,2.46
					c-0.29,0.76-0.64,1.45-1.06,2.07c0.41,0.36,0.82,0.69,1.21,1c0.39,0.31,0.78,0.61,1.15,0.9l-1.24,1.47
					c-0.36-0.28-0.73-0.57-1.13-0.88c-0.39-0.31-0.78-0.63-1.17-0.96c-0.59,0.57-1.27,1-2.04,1.29
					C104.82,52.24,104,52.39,103.13,52.39z M103.26,50.69c0.59,0,1.14-0.1,1.65-0.31c0.51-0.21,0.97-0.51,1.37-0.91
					c-0.72-0.66-1.42-1.33-2.11-2.02c-0.69-0.68-1.32-1.35-1.88-2c-0.54,0.29-0.97,0.57-1.28,0.85c-0.32,0.28-0.54,0.56-0.66,0.86
					c-0.12,0.3-0.19,0.62-0.19,0.98c0,0.77,0.28,1.39,0.85,1.85C101.57,50.46,102.32,50.69,103.26,50.69z M102.95,43.29l1.06-0.62
					c0.46-0.26,0.79-0.55,1.01-0.88c0.22-0.32,0.33-0.69,0.33-1.11c0-0.47-0.16-0.86-0.49-1.17s-0.73-0.47-1.21-0.47
					c-0.51,0-0.93,0.18-1.26,0.53c-0.33,0.35-0.5,0.8-0.5,1.35c0,0.37,0.08,0.73,0.24,1.09C102.29,42.37,102.56,42.79,102.95,43.29z
					"/>
			</g>
			<g>
				<path d="M31.86,74.2V59.72h2.92l4.53,9.27l4.53-9.27h2.9V74.2h-2.05V62.37l-5.4,10.8l-5.4-10.8V74.2H31.86z"/>
				<path d="M49.21,61.97c-0.35,0-0.64-0.13-0.89-0.38c-0.25-0.25-0.37-0.55-0.37-0.9c0-0.36,0.12-0.66,0.37-0.9
					c0.25-0.24,0.54-0.36,0.89-0.36c0.36,0,0.66,0.12,0.91,0.36c0.25,0.24,0.37,0.54,0.37,0.9c0,0.34-0.12,0.64-0.37,0.9
					C49.88,61.85,49.57,61.97,49.21,61.97z M48.18,74.2V63.67h2.07V74.2H48.18z"/>
				<path d="M56.29,74.36c-0.98,0-1.88-0.24-2.69-0.72c-0.81-0.48-1.46-1.13-1.92-1.95c-0.47-0.82-0.7-1.74-0.7-2.76
					s0.24-1.94,0.71-2.75c0.48-0.81,1.12-1.46,1.93-1.94c0.81-0.48,1.72-0.72,2.71-0.72c0.58,0,1.14,0.09,1.68,0.27
					c0.54,0.18,1.03,0.44,1.49,0.79v-4.84l2.07-0.39V74.2h-2.05v-1.01C58.62,73.97,57.54,74.36,56.29,74.36z M56.56,72.57
					c0.61,0,1.16-0.11,1.67-0.33c0.5-0.22,0.93-0.54,1.27-0.95v-4.74c-0.34-0.39-0.77-0.69-1.27-0.92c-0.5-0.23-1.06-0.34-1.67-0.34
					c-0.66,0-1.26,0.16-1.8,0.48c-0.54,0.32-0.97,0.75-1.28,1.29C53.16,67.6,53,68.21,53,68.9c0,0.69,0.16,1.31,0.48,1.86
					c0.32,0.55,0.74,0.99,1.28,1.31C55.29,72.4,55.89,72.57,56.56,72.57z"/>
				<path d="M64.73,74.2l-2.94-10.53h2.01l2.05,7.74l2.4-7.74h1.78l2.4,7.74l2.05-7.74h1.94L73.45,74.2h-1.99l-2.36-7.71l-2.38,7.71
					H64.73z"/>
				<path d="M77.67,61.97c-0.35,0-0.64-0.13-0.89-0.38c-0.25-0.25-0.37-0.55-0.37-0.9c0-0.36,0.12-0.66,0.37-0.9
					c0.25-0.24,0.54-0.36,0.89-0.36c0.36,0,0.66,0.12,0.91,0.36c0.25,0.24,0.37,0.54,0.37,0.9c0,0.34-0.12,0.64-0.37,0.9
					C78.34,61.85,78.03,61.97,77.67,61.97z M76.64,74.2V63.67h2.07V74.2H76.64z"/>
				<path d="M81.48,74.2v-8.79h-2.44v-1.74h2.44v-1.59c0-1.1,0.31-1.94,0.92-2.52c0.61-0.58,1.49-0.87,2.64-0.87
					c0.29,0,0.56,0.02,0.82,0.05c0.26,0.03,0.49,0.09,0.69,0.15v1.78c-0.25-0.07-0.47-0.12-0.66-0.15
					c-0.19-0.03-0.41-0.05-0.64-0.05c-0.58,0-1.01,0.13-1.29,0.4c-0.28,0.27-0.42,0.69-0.42,1.27v1.53h3.02v1.74h-3.02v8.79H81.48z"
					/>
				<path d="M91.43,74.39c-1.03,0-1.97-0.24-2.8-0.72c-0.83-0.48-1.5-1.14-1.99-1.96c-0.49-0.83-0.73-1.75-0.73-2.77
					c0-1.01,0.23-1.92,0.7-2.74c0.47-0.82,1.1-1.48,1.9-1.96c0.8-0.49,1.69-0.73,2.67-0.73c0.98,0,1.85,0.25,2.61,0.73
					c0.76,0.49,1.36,1.15,1.81,1.99c0.45,0.83,0.67,1.78,0.67,2.82v0.58h-8.29c0.11,0.58,0.33,1.1,0.65,1.55
					c0.32,0.45,0.74,0.81,1.24,1.08c0.5,0.26,1.05,0.39,1.64,0.39c0.51,0,1-0.08,1.48-0.24c0.48-0.16,0.87-0.39,1.19-0.69L95.5,73
					c-0.62,0.47-1.26,0.82-1.91,1.04C92.93,74.27,92.21,74.39,91.43,74.39z M87.99,68.06h6.23c-0.08-0.55-0.27-1.04-0.57-1.46
					c-0.3-0.42-0.66-0.75-1.1-0.99c-0.43-0.24-0.91-0.36-1.42-0.36c-0.52,0-1.01,0.12-1.45,0.35c-0.44,0.23-0.81,0.56-1.11,0.98
					C88.29,67,88.09,67.49,87.99,68.06z"/>
				<path d="M96.99,74.2V63.67h2.07v1.34c0.33-0.5,0.74-0.89,1.23-1.17c0.49-0.28,1.04-0.42,1.67-0.42
					c0.43,0.01,0.78,0.08,1.06,0.19v1.86c-0.19-0.08-0.39-0.14-0.6-0.18c-0.21-0.03-0.41-0.05-0.62-0.05
					c-0.61,0-1.15,0.16-1.61,0.49c-0.47,0.32-0.84,0.8-1.12,1.42v7.05H96.99z"/>
				<path d="M104.33,78.65c-0.22,0-0.43-0.01-0.62-0.03c-0.19-0.02-0.35-0.05-0.48-0.09V76.7c0.25,0.06,0.55,0.08,0.91,0.08
					c0.96,0,1.66-0.52,2.09-1.55l0.45-1.01l-4.22-10.55h2.3l3.06,8.03l3.39-8.03h2.23l-5.09,11.83c-0.33,0.74-0.68,1.35-1.06,1.81
					c-0.37,0.46-0.8,0.8-1.28,1.01C105.55,78.54,104.98,78.65,104.33,78.65z"/>
			</g>
			<g>
				<path d="M38.83,91.17c-1.08,0-2.07-0.19-2.99-0.57c-0.92-0.38-1.72-0.91-2.42-1.59c-0.7-0.68-1.23-1.48-1.61-2.38
					c-0.38-0.9-0.57-1.88-0.57-2.93c0-1.05,0.19-2.02,0.57-2.93c0.38-0.9,0.92-1.7,1.61-2.38c0.7-0.68,1.51-1.21,2.43-1.59
					c0.92-0.38,1.92-0.57,2.98-0.57c0.76,0,1.5,0.1,2.22,0.3c0.72,0.2,1.39,0.49,2.01,0.86c0.61,0.37,1.15,0.82,1.6,1.34l-1.45,1.49
					c-0.54-0.65-1.19-1.14-1.96-1.48c-0.77-0.34-1.58-0.51-2.42-0.51c-0.77,0-1.49,0.14-2.14,0.41c-0.65,0.28-1.22,0.66-1.71,1.15
					c-0.48,0.49-0.86,1.06-1.13,1.73c-0.27,0.66-0.4,1.39-0.4,2.17c0,0.77,0.13,1.49,0.4,2.15S34.51,87.1,35,87.6
					s1.08,0.88,1.74,1.16c0.66,0.28,1.38,0.41,2.15,0.41c0.84,0,1.64-0.17,2.39-0.51c0.75-0.34,1.39-0.82,1.91-1.44l1.43,1.45
					c-0.48,0.51-1.03,0.95-1.64,1.33c-0.61,0.38-1.28,0.67-1.99,0.87C40.28,91.07,39.56,91.17,38.83,91.17z"/>
				<path d="M49.96,91.15c-1.02,0-1.95-0.24-2.78-0.72c-0.83-0.48-1.49-1.14-1.98-1.96c-0.48-0.83-0.72-1.75-0.72-2.77
					c0-1.02,0.24-1.94,0.72-2.77c0.48-0.83,1.14-1.49,1.98-1.98c0.83-0.49,1.76-0.73,2.78-0.73c1.03,0,1.96,0.25,2.79,0.73
					c0.83,0.49,1.48,1.15,1.96,1.98c0.48,0.83,0.72,1.75,0.72,2.77c0,1.02-0.24,1.94-0.72,2.77c-0.48,0.83-1.14,1.48-1.96,1.96
					C51.92,90.91,50.99,91.15,49.96,91.15z M49.96,89.33c0.65,0,1.23-0.16,1.76-0.49c0.52-0.32,0.94-0.76,1.24-1.31
					c0.3-0.55,0.46-1.17,0.46-1.86c0-0.68-0.16-1.29-0.47-1.83c-0.31-0.55-0.72-0.98-1.24-1.31c-0.52-0.33-1.1-0.5-1.75-0.5
					c-0.65,0-1.23,0.17-1.75,0.5c-0.52,0.33-0.93,0.77-1.24,1.31c-0.31,0.54-0.47,1.15-0.47,1.83c0,0.69,0.15,1.31,0.45,1.86
					c0.3,0.55,0.72,0.99,1.24,1.31C48.72,89.17,49.31,89.33,49.96,89.33z"/>
				<path d="M60.24,91.15c-0.81,0-1.53-0.17-2.15-0.52c-0.62-0.34-1.1-0.83-1.45-1.46c-0.35-0.63-0.52-1.35-0.52-2.16v-6.6h2.05
					v6.25c0,0.83,0.24,1.48,0.71,1.96c0.48,0.48,1.11,0.72,1.91,0.72c0.57,0,1.07-0.12,1.51-0.36c0.44-0.24,0.8-0.58,1.08-1.02
					v-7.55h2.07v10.53h-2.07v-1.08C62.57,90.73,61.52,91.15,60.24,91.15z"/>
				<path d="M66.65,90.95V80.42h2.07v1.08c0.81-0.85,1.87-1.28,3.16-1.28c0.81,0,1.53,0.17,2.14,0.52c0.61,0.34,1.1,0.83,1.45,1.45
					C75.82,82.8,76,83.51,76,84.33v6.62h-2.07v-6.27c0-0.83-0.23-1.48-0.69-1.95c-0.46-0.48-1.11-0.71-1.93-0.71
					c-0.55,0-1.05,0.12-1.49,0.35c-0.44,0.23-0.81,0.57-1.1,1.01v7.57H66.65z"/>
				<path d="M82.08,91.13c-1.01,0-1.92-0.24-2.75-0.72c-0.83-0.48-1.48-1.14-1.95-1.96c-0.48-0.83-0.71-1.75-0.71-2.77
					c0-1.02,0.24-1.94,0.72-2.76c0.48-0.82,1.13-1.48,1.95-1.96c0.82-0.49,1.73-0.73,2.74-0.73c0.8,0,1.57,0.15,2.31,0.46
					c0.74,0.3,1.38,0.73,1.91,1.28l-1.28,1.43c-0.4-0.44-0.85-0.77-1.34-0.99c-0.5-0.22-1.01-0.33-1.55-0.33
					c-0.63,0-1.21,0.16-1.73,0.48c-0.52,0.32-0.93,0.75-1.23,1.3s-0.45,1.16-0.45,1.84c0,0.68,0.15,1.29,0.45,1.84
					s0.72,0.99,1.24,1.31c0.52,0.32,1.11,0.49,1.76,0.49c0.54,0,1.04-0.11,1.51-0.32c0.47-0.21,0.91-0.53,1.32-0.94l1.26,1.32
					c-0.55,0.57-1.19,1-1.91,1.3C83.62,90.98,82.86,91.13,82.08,91.13z"/>
				<path d="M87.71,78.72c-0.35,0-0.64-0.13-0.89-0.38c-0.25-0.25-0.37-0.56-0.37-0.9c0-0.36,0.12-0.66,0.37-0.9
					c0.25-0.24,0.54-0.36,0.89-0.36c0.36,0,0.66,0.12,0.91,0.36c0.25,0.24,0.37,0.54,0.37,0.9c0,0.34-0.12,0.65-0.37,0.9
					C88.37,78.6,88.06,78.72,87.71,78.72z M86.67,90.95V80.42h2.07v10.53H86.67z"/>
				<path d="M89.94,90.95V76.47l2.07-0.39v14.87H89.94z"/>
			</g>
			<g>
				<path d="M24.5,91.17H2.88v-4.7l12.54-9.22H2.88v-4.69H24.5v4.41l-13.03,9.51H24.5V91.17z"/>
			</g>
			<g>
				<path d="M24.81,62.62c0,1.55-0.28,2.98-0.85,4.3c-0.57,1.32-1.35,2.48-2.36,3.46s-2.19,1.75-3.54,2.3
					c-1.35,0.55-2.8,0.83-4.37,0.83c-1.58,0-3.05-0.27-4.4-0.83c-1.35-0.55-2.53-1.32-3.54-2.32c-1.01-0.99-1.8-2.15-2.36-3.48
					c-0.57-1.32-0.85-2.75-0.85-4.27c0-1.12,0.18-2.22,0.53-3.3c0.35-1.08,0.84-2.08,1.47-3c0.63-0.92,1.37-1.69,2.24-2.3l3.52,3.36
					c-0.97,0.72-1.69,1.51-2.16,2.39c-0.47,0.88-0.71,1.83-0.71,2.85c0,0.81,0.16,1.57,0.48,2.27c0.32,0.71,0.76,1.32,1.31,1.84
					c0.56,0.52,1.21,0.93,1.98,1.22c0.76,0.29,1.6,0.43,2.5,0.43c0.89,0,1.7-0.15,2.45-0.45c0.75-0.3,1.41-0.71,1.98-1.25
					c0.57-0.53,1-1.16,1.31-1.88c0.31-0.72,0.46-1.51,0.46-2.36c0-0.99-0.23-1.9-0.68-2.74c-0.45-0.84-1.12-1.6-2.01-2.28l3.43-3.27
					c0.84,0.62,1.58,1.38,2.21,2.29c0.63,0.91,1.11,1.89,1.45,2.96C24.64,60.46,24.81,61.53,24.81,62.62z"/>
			</g>
			<g>
				<path d="M24.5,54.56H2.88V44.51c0-1.39,0.26-2.61,0.77-3.67c0.51-1.05,1.23-1.88,2.15-2.48c0.92-0.6,1.97-0.9,3.17-0.9
					c0.89,0,1.71,0.21,2.49,0.62c0.77,0.42,1.43,0.98,1.96,1.69c0.51-0.91,1.18-1.63,2.01-2.16c0.82-0.53,1.73-0.8,2.72-0.8
					c1.26,0,2.36,0.3,3.32,0.9c0.96,0.6,1.7,1.44,2.24,2.52c0.54,1.08,0.8,2.34,0.8,3.77V54.56z M11.5,49.58v-4.75
					c0-0.73-0.2-1.31-0.59-1.74c-0.39-0.42-0.91-0.64-1.54-0.64c-0.66,0-1.18,0.21-1.56,0.64s-0.57,1-0.57,1.74v4.75H11.5z
					 M20.15,49.58v-5.19c0-0.77-0.21-1.39-0.62-1.84c-0.41-0.45-0.97-0.68-1.67-0.68c-0.7,0-1.26,0.23-1.67,0.68
					c-0.41,0.45-0.62,1.07-0.62,1.84v5.19H20.15z"/>
			</g>
		</g>
	</g>
	<rect class="st0" width="116" height="128"/>
</g>
</svg>
